<svg version="1.1" id="Layer_1" xmlns="http://www.w3.org/2000/svg" xmlns:xlink="http://www.w3.org/1999/xlink" x="0px" y="0px"
	 width="100%" viewBox="0 0 323 323" enable-background="new 0 0 323 323" xml:space="preserve">
<path fill="#EE9FAA" opacity="1.000000" stroke="none" 
	d="
M1.000000,323.000000 
	C1.000000,215.715073 1.000000,108.430153 1.000000,1.072616 
	C108.569649,1.072616 216.139359,1.072616 324.000000,1.072616 
	C324.000000,108.021255 324.000000,215.042786 323.532166,322.536865 
	C215.709549,323.006287 108.354774,323.003143 1.000000,323.000000 
M210.708252,71.549461 
	C209.286697,71.093910 207.850311,70.679756 206.446014,70.176109 
	C197.164948,66.847549 188.104660,62.498657 178.550430,60.457573 
	C170.066391,58.645123 160.973907,58.568588 152.265961,59.236927 
	C143.973450,59.873383 135.600311,61.771103 127.691589,64.403236 
	C120.696053,66.731453 114.341171,70.939774 107.614380,74.130241 
	C95.723808,79.769844 86.709518,88.690887 79.403221,99.317856 
	C73.724434,107.577614 68.254242,115.975006 65.790489,126.044685 
	C63.774563,134.284012 59.041252,141.848053 59.953949,150.819382 
	C60.153030,152.776276 59.785576,154.794373 59.643856,156.781769 
	C58.757915,169.205734 60.591564,181.384171 65.148041,192.801208 
	C68.963440,202.361374 73.851204,211.634613 79.359634,220.341858 
	C86.057747,230.929642 95.385803,239.243576 106.457504,245.245544 
	C113.791397,249.221268 121.323296,252.907684 129.022964,256.106415 
	C134.269089,258.285858 139.906082,260.523285 145.459045,260.781219 
	C163.331299,261.611298 180.973038,261.231293 198.116211,253.888519 
	C207.675064,249.794235 216.359375,244.581696 224.255890,238.404678 
	C238.433075,227.314636 248.896423,213.147797 254.775421,195.755127 
	C258.621185,184.377655 262.183502,172.978424 261.913788,160.889938 
	C261.635437,148.413956 258.915680,136.452774 254.672623,124.563309 
	C249.756668,110.788399 242.684158,98.709656 232.142548,88.823326 
	C225.646332,82.730881 218.294785,77.550430 210.708252,71.549461 
z"/>
<path fill="#FFFFFF" opacity="1.000000" stroke="none" 
	d="
M1.000000,323.500000 
	C108.354774,323.003143 215.709549,323.006287 323.532166,323.004700 
	C322.500000,323.333313 321.000153,323.957520 319.499969,323.958374 
	C236.333344,324.005249 153.166702,324.000000 70.000046,324.000000 
	C47.000031,324.000000 24.000015,324.000000 1.000000,323.500000 
z"/>
<path fill="#EFA4AE" opacity="1.000000" stroke="none" 
	d="
M211.017761,71.754990 
	C218.294785,77.550430 225.646332,82.730881 232.142548,88.823326 
	C242.684158,98.709656 249.756668,110.788399 254.672623,124.563309 
	C258.915680,136.452774 261.635437,148.413956 261.913788,160.889938 
	C262.183502,172.978424 258.621185,184.377655 254.775421,195.755127 
	C248.896423,213.147797 238.433075,227.314636 224.255890,238.404678 
	C216.359375,244.581696 207.675064,249.794235 198.116211,253.888519 
	C180.973038,261.231293 163.331299,261.611298 145.459045,260.781219 
	C139.906082,260.523285 134.269089,258.285858 129.022964,256.106415 
	C121.323296,252.907684 113.791397,249.221268 106.457504,245.245544 
	C95.385803,239.243576 86.057747,230.929642 79.359634,220.341858 
	C73.851204,211.634613 68.963440,202.361374 65.148041,192.801208 
	C60.591564,181.384171 58.757915,169.205734 59.643856,156.781769 
	C59.785576,154.794373 60.153030,152.776276 59.953949,150.819382 
	C59.041252,141.848053 63.774563,134.284012 65.790489,126.044685 
	C68.254242,115.975006 73.724434,107.577614 79.403221,99.317856 
	C86.709518,88.690887 95.723808,79.769844 107.614380,74.130241 
	C114.341171,70.939774 120.696053,66.731453 127.691589,64.403236 
	C135.600311,61.771103 143.973450,59.873383 152.265961,59.236927 
	C160.973907,58.568588 170.066391,58.645123 178.550430,60.457573 
	C188.104660,62.498657 197.164948,66.847549 206.446014,70.176109 
	C207.850311,70.679756 209.286697,71.093910 211.017761,71.754990 
M195.539978,172.917053 
	C185.172791,148.211639 174.849777,123.487366 164.336151,98.844421 
	C163.655807,97.249763 161.493240,95.279999 160.045929,95.300545 
	C158.568970,95.321518 156.495575,97.301605 155.771469,98.912971 
	C152.294357,106.650719 149.369476,114.637390 145.865829,122.362106 
	C144.201431,126.031685 144.376770,129.118835 145.944000,132.759018 
	C153.840546,151.100098 161.453690,169.562943 169.264603,187.941269 
	C172.972229,196.664963 176.470169,205.519836 180.854675,213.901184 
	C184.743866,221.335678 191.393173,225.183945 200.101074,225.023743 
	C207.258484,224.892075 214.420349,225.019104 221.579865,224.972946 
	C222.916855,224.964325 224.252045,224.678665 226.490234,224.414307 
	C225.183914,223.226349 224.787979,222.645432 224.241791,222.402924 
	C216.622665,219.020035 212.028412,213.114243 209.052292,205.432968 
	C204.905319,194.729675 200.274078,184.214035 195.539978,172.917053 
M133.538727,182.516617 
	C133.330383,183.989212 133.029022,185.455582 132.930145,186.935486 
	C132.549515,192.632355 135.521011,196.546432 140.224075,198.986816 
	C144.648788,201.282761 149.318436,200.952271 153.440521,197.960922 
	C157.859955,194.753784 159.698044,190.274689 158.870361,184.856186 
	C158.074814,179.647980 153.530579,174.987350 148.254532,174.207947 
	C141.709412,173.241089 137.010880,176.134064 133.538727,182.516617 
M112.361359,203.800537 
	C109.428513,212.827698 104.165947,219.890823 94.505295,223.246231 
	C94.791420,223.637451 95.077545,224.028671 95.363670,224.419891 
	C105.014694,224.419891 114.665726,224.419891 124.316750,224.419891 
	C124.525597,224.014191 124.734444,223.608505 124.943291,223.202805 
	C124.340157,222.915558 123.715492,222.665970 123.137108,222.335419 
	C115.090866,217.736679 113.900642,214.275375 117.385284,205.705627 
	C119.800194,199.766693 122.203209,193.822922 124.611526,187.881317 
	C124.101021,187.430405 123.590508,186.979477 123.079994,186.528564 
	C121.146278,188.367813 118.690369,189.902695 117.399864,192.116837 
	C115.406982,195.536041 114.211403,199.419952 112.361359,203.800537 
z"/>
<path fill="#FFFEFE" opacity="1.000000" stroke="none" 
	d="
M195.695038,173.267563 
	C200.274078,184.214035 204.905319,194.729675 209.052292,205.432968 
	C212.028412,213.114243 216.622665,219.020035 224.241791,222.402924 
	C224.787979,222.645432 225.183914,223.226349 226.490234,224.414307 
	C224.252045,224.678665 222.916855,224.964325 221.579865,224.972946 
	C214.420349,225.019104 207.258484,224.892075 200.101074,225.023743 
	C191.393173,225.183945 184.743866,221.335678 180.854675,213.901184 
	C176.470169,205.519836 172.972229,196.664963 169.264603,187.941269 
	C161.453690,169.562943 153.840546,151.100098 145.944000,132.759018 
	C144.376770,129.118835 144.201431,126.031685 145.865829,122.362106 
	C149.369476,114.637390 152.294357,106.650719 155.771469,98.912971 
	C156.495575,97.301605 158.568970,95.321518 160.045929,95.300545 
	C161.493240,95.279999 163.655807,97.249763 164.336151,98.844421 
	C174.849777,123.487366 185.172791,148.211639 195.695038,173.267563 
z"/>
<path fill="#FFFEFE" opacity="1.000000" stroke="none" 
	d="
M133.696106,182.150452 
	C137.010880,176.134064 141.709412,173.241089 148.254532,174.207947 
	C153.530579,174.987350 158.074814,179.647980 158.870361,184.856186 
	C159.698044,190.274689 157.859955,194.753784 153.440521,197.960922 
	C149.318436,200.952271 144.648788,201.282761 140.224075,198.986816 
	C135.521011,196.546432 132.549515,192.632355 132.930145,186.935486 
	C133.029022,185.455582 133.330383,183.989212 133.696106,182.150452 
z"/>
<path fill="#FEFCFC" opacity="1.000000" stroke="none" 
	d="
M112.519516,203.453659 
	C114.211403,199.419952 115.406982,195.536041 117.399864,192.116837 
	C118.690369,189.902695 121.146278,188.367813 123.079994,186.528564 
	C123.590508,186.979477 124.101021,187.430405 124.611526,187.881317 
	C122.203209,193.822922 119.800194,199.766693 117.385284,205.705627 
	C113.900642,214.275375 115.090866,217.736679 123.137108,222.335419 
	C123.715492,222.665970 124.340157,222.915558 124.943291,223.202805 
	C124.734444,223.608505 124.525597,224.014191 124.316750,224.419891 
	C114.665726,224.419891 105.014694,224.419891 95.363670,224.419891 
	C95.077545,224.028671 94.791420,223.637451 94.505295,223.246231 
	C104.165947,219.890823 109.428513,212.827698 112.519516,203.453659 
z"/>
</svg>